<?xml version="1.0" encoding="iso-8859-1"?>
<!-- Uploaded to: SVG Repo, www.svgrepo.com, Generator: SVG Repo Mixer Tools -->
<svg fill="#000000" height="800px" width="800px" version="1.1" id="Layer_1" xmlns="http://www.w3.org/2000/svg" xmlns:xlink="http://www.w3.org/1999/xlink" 
	 viewBox="0 0 512.003 512.003" xml:space="preserve">
<g>
	<g>
		<g>
			<path d="M240.093,315.073h31.805c4.424,0,8.011-3.587,8.011-8.011s-3.587-8.011-8.011-8.011h-31.805
				c-4.424,0-8.011,3.587-8.011,8.011S235.668,315.073,240.093,315.073z"/>
			<circle cx="240.1" cy="280.785" r="7.473"/>
			<path d="M240.093,339.534h31.805c4.424,0,8.011-3.587,8.011-8.011s-3.587-8.011-8.011-8.011h-31.805
				c-4.424,0-8.011,3.587-8.011,8.011S235.668,339.534,240.093,339.534z"/>
			<path d="M495.158,331.586V188.446c0-19.142-15.572-34.714-34.714-34.714h-14.318l-2.784-10.073
				c-1.739-6.284-7.966-11.022-14.486-11.022h-31.509c-6.521,0-12.748,4.74-14.484,11.024l-2.785,10.071H244.251v-10.909h122.239
				c10.306,0,18.692-8.386,18.692-18.692v-12.817c0-10.306-8.386-18.692-18.692-18.692H60.511c-10.306,0-18.692,8.386-18.692,18.692
				v12.817c0,10.306,8.386,18.692,18.692,18.692h10.438v10.909H51.556c-19.141,0-34.714,15.572-34.714,34.714v143.141
				C7.461,332.162,0,339.954,0,349.477v16.146c0,9.896,8.05,17.948,17.947,17.948h18.084c9.896,0,17.948-8.051,17.948-17.948v-0.062
				h19.557c3.942,30.321,29.917,53.82,61.295,53.82s57.352-23.5,61.295-53.82h119.752c3.942,30.321,29.918,53.82,61.295,53.82
				s57.352-23.5,61.295-53.82h15.285v0.062c0,9.896,8.051,17.948,17.948,17.948h22.357c9.896,0,17.947-8.051,17.947-17.948v-16.146
				C512,339.954,504.538,332.162,495.158,331.586z M398.103,148.658h29.998l1.404,5.074h-32.804L398.103,148.658z M60.511,126.802
				c-1.447,0-2.67-1.223-2.67-2.67v-12.817c0-1.447,1.223-2.67,2.67-2.67h305.978c1.447,0,2.67,1.223,2.67,2.67v12.817
				c0,1.447-1.223,2.67-2.67,2.67H60.511z M228.229,142.823v10.909h-10.948v-10.909H228.229z M201.259,142.823v10.909h-22.163
				v-10.909H201.259z M163.074,142.823v10.909h-10.948v-10.909H163.074z M136.104,142.823v10.909H113.94v-10.909H136.104z
				 M97.919,142.823v10.909H86.97v-10.909H97.919z M37.957,365.624h-0.001c0,1.044-0.882,1.926-1.926,1.926H17.947
				c-1.042,0-1.925-0.882-1.925-1.926v-16.146c0-1.044,0.881-1.926,1.925-1.926h18.084c1.044,0,1.926,0.882,1.926,1.926V365.624z
				 M45.047,331.531H32.864v-8.196h12.183V331.531z M134.828,403.361c-25.259,0-45.809-20.55-45.809-45.809
				c0-25.259,20.55-45.809,45.809-45.809c25.259,0,45.809,20.549,45.809,45.809C180.638,382.811,160.088,403.361,134.828,403.361z
				 M207.879,349.54L207.879,349.54h-11.756c-3.942-30.321-29.917-53.82-61.295-53.82c-31.377,0-57.352,23.5-61.295,53.82H53.976
				v-0.063c0-1.141-0.119-2.254-0.323-3.337c4.387-2.191,7.414-6.713,7.414-11.94v-13.536c0-7.363-5.989-13.351-13.352-13.351
				H32.864v-12.127h175.015V349.54z M207.879,279.164L207.879,279.164H32.864v-4.963h175.015V279.164z M288.091,349.54h-64.19
				v-88.161h64.19V349.54z M296.101,245.357H215.89c-4.424,0-8.011,3.587-8.011,8.011v4.812H32.864v-69.734
				c0-10.307,8.386-18.692,18.692-18.692h408.888c10.306,0,18.692,8.385,18.692,18.692v69.734H304.112v-4.812
				C304.112,248.944,300.526,245.357,296.101,245.357z M479.136,274.202v4.963H304.112v-4.963H479.136z M377.17,403.361
				c-25.259,0-45.809-20.55-45.809-45.809c0-25.259,20.55-45.809,45.809-45.809c25.259,0,45.809,20.549,45.809,45.809
				S402.43,403.361,377.17,403.361z M450.931,320.665v13.536c0,3.642,1.47,6.946,3.843,9.357c-0.652,1.856-1.024,3.843-1.024,5.919
				v0.063h-15.285c-3.942-30.321-29.918-53.82-61.295-53.82s-57.352,23.5-61.295,53.82h-11.764v-54.354h175.025v12.127h-14.853
				C456.92,307.314,450.931,313.302,450.931,320.665z M466.953,323.335h12.183v8.196h-12.183V323.335z M495.978,365.624
				c0,1.044-0.881,1.926-1.925,1.926h-22.357c-1.044,0-1.926-0.882-1.926-1.926v-16.146c0-1.044,0.881-1.926,1.926-1.926h22.357
				c1.044,0,1.925,0.882,1.925,1.926V365.624z"/>
			<path d="M134.828,322.261c-19.459,0-35.291,15.832-35.291,35.291s15.832,35.291,35.291,35.291s35.291-15.832,35.291-35.291
				S154.288,322.261,134.828,322.261z M134.828,376.82c-10.625,0-19.269-8.644-19.269-19.269s8.644-19.269,19.269-19.269
				s19.269,8.644,19.269,19.269S145.454,376.82,134.828,376.82z"/>
			<path d="M259.866,183.596h-18.176c-7.362,0-13.352,5.989-13.352,13.351v5.879h-131v-5.879c0-7.362-5.989-13.351-13.352-13.351
				H65.811c-7.362,0-13.352,5.989-13.352,13.351v27.779c0,7.363,5.99,13.351,13.352,13.351h18.175
				c7.363,0,13.352-5.989,13.352-13.351v-5.878h131v5.878c0,7.363,5.99,13.351,13.352,13.351h18.176
				c7.363,0,13.351-5.989,13.351-13.351v-27.779C273.217,189.585,267.228,183.596,259.866,183.596z M81.316,222.055H68.481v-22.438
				h12.834V222.055z M257.195,222.055H244.36v-22.438h12.836V222.055z"/>
			<path d="M391.056,245.905h62.189c9.129,0,16.556-7.427,16.556-16.556v-37.028c0-9.129-7.427-16.556-16.556-16.556h-62.189
				c-9.129,0-16.556,7.427-16.556,16.556v37.028C374.5,238.479,381.927,245.905,391.056,245.905z M390.522,192.321
				c0-0.275,0.26-0.534,0.534-0.534h62.189c0.274,0,0.534,0.26,0.534,0.534v37.028c0,0.274-0.26,0.534-0.534,0.534h-62.189
				c-0.274,0-0.534-0.26-0.534-0.534V192.321z"/>
			<path d="M349.757,245.905c9.129,0,16.556-7.427,16.556-16.556v-37.028c0-9.129-7.427-16.556-16.556-16.556h-36.566
				c-9.129,0-16.556,7.427-16.556,16.556v37.028c0,9.129,7.427,16.556,16.556,16.556H349.757z M312.657,229.349v-37.028
				c0-0.275,0.26-0.534,0.534-0.534h36.566c0.275,0,0.534,0.26,0.534,0.534v37.028c0,0.275-0.26,0.534-0.534,0.534h-36.566
				C312.917,229.884,312.657,229.624,312.657,229.349z"/>
			<path d="M377.17,322.261c-19.46,0-35.291,15.832-35.291,35.291s15.831,35.291,35.291,35.291s35.291-15.832,35.291-35.291
				S396.63,322.261,377.17,322.261z M377.17,376.82c-10.625,0-19.269-8.644-19.269-19.269s8.644-19.269,19.269-19.269
				s19.269,8.644,19.269,19.269S387.795,376.82,377.17,376.82z"/>
			<circle cx="271.899" cy="280.785" r="7.473"/>
		</g>
	</g>
</g>
</svg>